<svg width="160" height="160" version="1.1" xmlns="http://www.w3.org/2000/svg"><g transform="translate(33.084 57.496)"><path d="m36.705 0.0079994s-3.466 6.051-3.597 11.743h3.205v2.747h-3.337s-0.261 5.692 3.729 12.037h-3.238s-7.85-10.826 0-26.527z"/><path d="m30.382 26.526s-7.851-10.817 0-26.518h-30.191v26.518z" fill="#e2001a"/><path d="m48.842 26.539h3.054v-12.035h3.259v-2.748h-3.208c0.132-5.692 3.599-11.743 3.599-11.743h-3.237c-2.49 4.978-3.4 9.466-3.482 13.275z"/><path d="m59.979 14.504s-0.263 5.691 3.728 12.037h-3.239s-3.662-5.05-3.481-13.254v-13.279h2.976z"/><path d="m66.82 26.541c-3.991-6.346-3.729-12.037-3.729-12.037l-0.017-14.496h30.683l-0.024 26.53z" fill="#e2001a"/><path d="m41.715 0.0079994h-3.009v26.532h3.009z"/><path d="m45.771 0.0079994h-3.205s5.038 6.607 0 13.28h3.205s4.747-6.273 0-13.28"/><path d="m2.662 30.126c0.036 0.065 0 0.085-0.028 0.085-0.021 0-0.092-0.013-0.212 0-0.346 0.036-0.84 0.197-1.073 0.296-0.05 0.02-0.092 0.035-0.106 0.035-0.015 0-0.036-0.015-0.036-0.043 0-0.02 0.015-0.034 0.05-0.054 0.254-0.176 0.911-0.573 0.961-0.601 0.119-0.071 0.162-0.093 0.197-0.093 0.021 0 0.036 0.015 0.071 0.064 0.049 0.071 0.098 0.17 0.176 0.311m-2.047 3.01c0-1.102 0-1.301-0.015-1.527-0.014-0.239-0.07-0.353-0.303-0.402-0.058-0.014-0.177-0.022-0.241-0.022-0.028 0-0.056-0.013-0.056-0.042 0-0.043 0.035-0.058 0.113-0.058 0.318 0 0.762 0.022 0.798 0.022 0.049 0 1.455 0 1.618-7e-3 0.133-7e-3 0.247-0.022 0.302-0.035 0.036-7e-3 0.064-0.034 0.099-0.034 0.022 0 0.029 0.027 0.029 0.062 0 0.05-0.035 0.134-0.056 0.333-8e-3 0.07-0.022 0.381-0.036 0.466-7e-3 0.036-0.021 0.079-0.049 0.079-0.042 0-0.056-0.036-0.056-0.093 0-0.049-8e-3 -0.171-0.043-0.255-0.05-0.112-0.12-0.197-0.501-0.238-0.121-0.015-0.89-0.022-0.968-0.022-0.028 0-0.043 0.022-0.043 0.071v1.947c0 0.05 8e-3 0.071 0.043 0.071 0.092 0 0.96 0 1.123-0.014 0.169-0.014 0.269-0.029 0.332-0.098 0.049-0.055 0.077-0.09 0.106-0.09 0.02 0 0.035 0.014 0.035 0.056 0 0.038-0.035 0.16-0.056 0.395-0.014 0.143-0.028 0.401-0.028 0.45 0 0.058 0 0.136-0.05 0.136-0.035 0-0.05-0.028-0.05-0.065 0-0.071 0-0.142-0.028-0.233-0.028-0.097-0.092-0.217-0.367-0.245-0.191-0.022-0.89-0.036-1.01-0.036-0.035 0-0.05 0.021-0.05 0.049v0.622c0 0.238-7e-3 1.058 0 1.208 0.021 0.487 0.128 0.579 0.82 0.579 0.183 0 0.494 0 0.678-0.078 0.183-0.077 0.268-0.22 0.318-0.508 0.014-0.078 0.028-0.106 0.063-0.106 0.042 0 0.042 0.056 0.042 0.106 0 0.056-0.056 0.536-0.091 0.682-0.05 0.186-0.107 0.186-0.382 0.186-1.066 0-1.54-0.044-1.744-0.044-0.036 0-0.48 0.021-0.692 0.021-0.078 0-0.113-0.014-0.113-0.056 0-0.021 0.014-0.043 0.056-0.043 0.064 0 0.149-0.014 0.212-0.028 0.142-0.029 0.177-0.182 0.205-0.387 0.036-0.295 0.036-0.854 0.036-1.532z"/><path d="m4.972 35.762c-0.685-0.616-0.855-1.418-0.855-2.089 0-0.474 0.163-1.301 0.791-1.93 0.424-0.422 1.067-0.755 2.154-0.755 0.283 0 0.678 0.022 1.024 0.085 0.269 0.048 0.495 0.092 0.721 0.105 0.077 7e-3 0.091 0.036 0.091 0.078 0 0.058-0.021 0.142-0.035 0.396-0.014 0.233-0.014 0.62-0.021 0.727-7e-3 0.106-0.021 0.15-0.064 0.15-0.049 0-0.057-0.051-0.057-0.15 0-0.276-0.113-0.565-0.296-0.721-0.247-0.21-0.79-0.402-1.413-0.402-0.938 0-1.377 0.276-1.623 0.515-0.516 0.494-0.637 1.123-0.637 1.844 0 1.35 1.039 2.586 2.55 2.586 0.53 0 0.947-0.063 1.229-0.355 0.148-0.155 0.24-0.465 0.261-0.593 0.015-0.078 0.029-0.107 0.071-0.107 0.035 0 0.049 0.05 0.049 0.107 0 0.051-0.084 0.664-0.155 0.906-0.042 0.132-0.056 0.146-0.184 0.202-0.282 0.114-0.819 0.164-1.271 0.164-1.059 0-1.772-0.263-2.33-0.763"/><path d="m10.473 33.552c0-1.546 0.883-2.325 2.063-2.325 1.116 0 2.147 0.913 2.147 2.609 0 2.054-1.314 2.421-1.95 2.421-1.271 0-2.26-1.061-2.26-2.705m-0.671 0.199c0 1.27 0.806 2.774 2.74 2.774 1.703 0 2.819-1.308 2.819-2.889 0-1.644-1.187-2.648-2.776-2.648-1.949 0-2.783 1.618-2.783 2.763"/><path d="m17.663 34.393c0 1.037 0.028 1.49 0.155 1.618 0.114 0.112 0.297 0.162 0.848 0.162 0.374 0 0.684-7e-3 0.854-0.213 0.092-0.114 0.163-0.291 0.184-0.423 7e-3 -0.056 0.021-0.091 0.064-0.091 0.035 0 0.041 0.028 0.041 0.106 0 0.076-0.049 0.501-0.105 0.705-0.05 0.162-0.07 0.191-0.445 0.191-1.017 0-1.483-0.044-1.893-0.044-0.063 0-0.48 0.021-0.692 0.021-0.077 0-0.113-0.014-0.113-0.056 0-0.021 0.014-0.043 0.057-0.043 0.063 0 0.148-0.014 0.212-0.028 0.141-0.029 0.175-0.182 0.204-0.387 0.035-0.295 0.035-0.854 0.035-1.532v-1.243c0-1.102 0-1.301-0.013-1.527-0.015-0.239-0.071-0.353-0.304-0.402-0.057-0.014-0.177-0.022-0.24-0.022-0.029 0-0.057-0.013-0.057-0.042 0-0.043 0.035-0.058 0.113-0.058 0.318 0 0.762 0.022 0.798 0.022s0.551-0.022 0.763-0.022c0.077 0 0.113 0.015 0.113 0.058 0 0.029-0.028 0.042-0.056 0.042-0.05 0-0.149 8e-3 -0.234 0.022-0.205 0.035-0.261 0.156-0.275 0.402-0.014 0.226-0.014 0.425-0.014 1.527z"/><path d="m21.25 33.136c0-1.102 0-1.301-0.014-1.527-0.014-0.239-0.07-0.353-0.303-0.402-0.057-0.014-0.176-0.022-0.241-0.022-0.028 0-0.056-0.013-0.056-0.042 0-0.043 0.035-0.058 0.113-0.058 0.318 0 0.763 0.022 0.798 0.022 0.049 0 1.455 0 1.618-7e-3 0.134-7e-3 0.247-0.022 0.303-0.035 0.036-7e-3 0.063-0.034 0.099-0.034 0.021 0 0.028 0.027 0.028 0.062 0 0.05-0.035 0.134-0.056 0.333-8e-3 0.07-0.021 0.381-0.035 0.466-8e-3 0.036-0.022 0.079-0.05 0.079-0.042 0-0.056-0.036-0.056-0.093 0-0.049-7e-3 -0.171-0.043-0.255-0.05-0.112-0.12-0.197-0.502-0.238-0.12-0.015-0.889-0.022-0.967-0.022-0.028 0-0.043 0.022-0.043 0.071v1.947c0 0.05 8e-3 0.071 0.043 0.071 0.091 0 0.961 0 1.123-0.014 0.17-0.014 0.269-0.029 0.332-0.098 0.05-0.055 0.078-0.09 0.105-0.09 0.022 0 0.036 0.014 0.036 0.056 0 0.038-0.036 0.16-0.056 0.395-0.014 0.143-0.028 0.401-0.028 0.45 0 0.058 0 0.136-0.05 0.136-0.035 0-0.049-0.028-0.049-0.065 0-0.071 0-0.142-0.028-0.233-0.029-0.097-0.092-0.217-0.368-0.245-0.191-0.022-0.89-0.036-1.01-0.036-0.035 0-0.05 0.021-0.05 0.049v0.622c0 0.238-6e-3 1.058 0 1.208 0.022 0.487 0.128 0.579 0.82 0.579 0.184 0 0.494 0 0.678-0.078 0.184-0.077 0.268-0.22 0.318-0.508 0.014-0.078 0.028-0.106 0.064-0.106 0.042 0 0.042 0.056 0.042 0.106 0 0.056-0.057 0.536-0.092 0.682-0.049 0.186-0.106 0.186-0.382 0.186-1.066 0-1.539-0.044-1.744-0.044-0.035 0-0.48 0.021-0.692 0.021-0.078 0-0.113-0.014-0.113-0.056 0-0.021 0.015-0.043 0.057-0.043 0.063 0 0.148-0.014 0.211-0.028 0.141-0.029 0.177-0.182 0.205-0.387 0.035-0.295 0.035-0.854 0.035-1.532z"/><path d="m27.854 33.136c0-1.102 0-1.301-0.014-1.527-0.014-0.239-0.071-0.353-0.304-0.402-0.056-0.014-0.176-0.022-0.24-0.022-0.028 0-0.057-0.013-0.057-0.042 0-0.043 0.036-0.058 0.113-0.058 0.318 0 0.742 0.022 0.799 0.022 0.154 0 0.564-0.022 0.889-0.022 0.884 0 1.201 0.3 1.314 0.404 0.156 0.148 0.353 0.467 0.353 0.839 0 1.005-0.734 1.682-1.737 1.682-0.036 0-0.113 0-0.149-8e-3 -0.035 0-0.077-0.013-0.077-0.049 0-0.054 0.042-0.061 0.19-0.061 0.685 0 1.222-0.504 1.222-1.153 0-0.232-0.021-0.705-0.395-1.087-0.375-0.381-0.805-0.353-0.968-0.353-0.12 0-0.24 0.015-0.303 0.043-0.043 0.014-0.057 0.063-0.057 0.133v2.904c0 0.678 0 1.237 0.035 1.532 0.022 0.205 0.063 0.358 0.276 0.387 0.099 0.014 0.254 0.028 0.318 0.028 0.042 0 0.056 0.022 0.056 0.043 0 0.035-0.036 0.056-0.113 0.056-0.389 0-0.833-0.021-0.869-0.021-0.021 0-0.466 0.021-0.677 0.021-0.078 0-0.114-0.014-0.114-0.056 0-0.021 0.015-0.043 0.056-0.043 0.064 0 0.149-0.014 0.213-0.028 0.141-0.029 0.176-0.182 0.204-0.387 0.036-0.295 0.036-0.854 0.036-1.532z"/><path d="m32.254 33.552c0-1.546 0.883-2.325 2.062-2.325 1.116 0 2.147 0.913 2.147 2.609 0 2.054-1.314 2.421-1.949 2.421-1.272 0-2.26-1.061-2.26-2.705m-0.672 0.199c0 1.27 0.805 2.774 2.741 2.774 1.702 0 2.818-1.308 2.818-2.889 0-1.644-1.187-2.648-2.775-2.648-1.949 0-2.784 1.618-2.784 2.763"/><path d="m39.302 34.393c0 1.037 0.028 1.49 0.155 1.618 0.113 0.112 0.297 0.162 0.848 0.162 0.375 0 0.685-7e-3 0.854-0.213 0.093-0.114 0.163-0.291 0.183-0.423 8e-3 -0.056 0.022-0.091 0.065-0.091 0.034 0 0.042 0.028 0.042 0.106 0 0.076-0.049 0.501-0.107 0.705-0.049 0.162-0.069 0.191-0.444 0.191-1.017 0-1.483-0.044-1.893-0.044-0.063 0-0.48 0.021-0.692 0.021-0.078 0-0.113-0.014-0.113-0.056 0-0.021 0.014-0.043 0.056-0.043 0.065 0 0.149-0.014 0.213-0.028 0.141-0.029 0.177-0.182 0.204-0.387 0.036-0.295 0.036-0.854 0.036-1.532v-1.243c0-1.102 0-1.301-0.014-1.527-0.015-0.239-0.071-0.353-0.304-0.402-0.056-0.014-0.177-0.022-0.24-0.022-0.028 0-0.057-0.013-0.057-0.042 0-0.043 0.035-0.058 0.113-0.058 0.318 0 0.763 0.022 0.798 0.022 0.036 0 0.551-0.022 0.763-0.022 0.078 0 0.113 0.015 0.113 0.058 0 0.029-0.029 0.042-0.056 0.042-0.05 0-0.149 8e-3 -0.234 0.022-0.204 0.035-0.261 0.156-0.275 0.402-0.014 0.226-0.014 0.425-0.014 1.527z"/><path d="m43.533 34.596c0-0.381-0.071-0.536-0.163-0.739-0.049-0.113-0.996-1.669-1.242-2.035-0.178-0.262-0.354-0.437-0.482-0.523-0.105-0.072-0.239-0.114-0.304-0.114-0.035 0-0.069-0.013-0.069-0.049 0-0.029 0.027-0.051 0.091-0.051 0.134 0 0.664 0.022 0.699 0.022 0.05 0 0.318-0.022 0.593-0.022 0.079 0 0.093 0.022 0.093 0.051s-0.043 0.036-0.107 0.064c-0.055 0.027-0.091 0.071-0.091 0.126 0 0.087 0.036 0.17 0.091 0.277 0.113 0.204 1.173 2.026 1.3 2.233 0.134-0.298 1.031-1.844 1.172-2.078 0.093-0.149 0.12-0.269 0.12-0.36 0-0.099-0.027-0.177-0.113-0.198-0.063-0.022-0.105-0.035-0.105-0.072 0-0.028 0.042-0.043 0.113-0.043 0.183 0 0.409 0.022 0.466 0.022 0.042 0 0.55-0.022 0.684-0.022 0.05 0 0.093 0.015 0.093 0.043 0 0.037-0.036 0.057-0.093 0.057-0.077 0-0.211 0.029-0.325 0.101-0.141 0.084-0.218 0.169-0.374 0.357-0.232 0.285-1.222 1.944-1.349 2.249-0.105 0.253-0.105 0.473-0.105 0.704v0.608c0 0.113 0 0.412 0.021 0.707 0.014 0.205 0.077 0.358 0.29 0.387 0.098 0.014 0.253 0.028 0.317 0.028 0.042 0 0.057 0.022 0.057 0.043 0 0.035-0.035 0.056-0.114 0.056-0.387 0-0.832-0.021-0.868-0.021s-0.481 0.021-0.692 0.021c-0.078 0-0.113-0.014-0.113-0.056 0-0.021 0.014-0.043 0.056-0.043 0.064 0 0.148-0.014 0.212-0.028 0.142-0.029 0.205-0.182 0.219-0.387 0.022-0.295 0.022-0.594 0.022-0.707z"/><path d="m49.013 34.379c0 0.678 0 1.237 0.034 1.532 0.021 0.205 0.064 0.358 0.276 0.387 0.1 0.014 0.255 0.028 0.317 0.028 0.043 0 0.056 0.022 0.056 0.043 0 0.035-0.035 0.056-0.111 0.056-0.389 0-0.832-0.021-0.867-0.021-0.037 0-0.481 0.021-0.694 0.021-0.079 0-0.114-0.014-0.114-0.056 0-0.021 0.014-0.043 0.056-0.043 0.065 0 0.15-0.014 0.214-0.028 0.14-0.029 0.177-0.182 0.204-0.387 0.036-0.295 0.036-0.854 0.036-1.532v-2.988l-1.047 0.014c-0.437 8e-3 -0.606 0.057-0.718 0.226-0.079 0.12-0.1 0.169-0.121 0.219-0.021 0.057-0.042 0.071-0.071 0.071-0.021 0-0.036-0.021-0.036-0.064 0-0.071 0.142-0.679 0.156-0.736 0.014-0.043 0.043-0.133 0.072-0.133 0.048 0 0.119 0.07 0.311 0.085 0.203 0.02 0.471 0.034 0.557 0.034h2.648c0.452 0 0.641-0.069 0.698-0.069 0.036 0 0.036 0.04 0.036 0.083 0 0.213-0.021 0.701-0.021 0.779 0 0.063-0.021 0.092-0.05 0.092-0.035 0-0.049-0.021-0.057-0.121l-7e-3 -0.078c-0.026-0.211-0.188-0.373-0.866-0.388l-0.891-0.014z"/><path d="m52.388 33.136c0-1.102 0-1.301-0.013-1.527-0.014-0.239-0.07-0.353-0.305-0.402-0.056-0.014-0.175-0.022-0.24-0.022-0.028 0-0.055-0.013-0.055-0.042 0-0.043 0.033-0.058 0.112-0.058 0.317 0 0.762 0.022 0.797 0.022 0.051 0 1.455 0 1.618-7e-3 0.134-7e-3 0.248-0.022 0.305-0.035 0.036-7e-3 0.064-0.034 0.099-0.034 0.02 0 0.026 0.027 0.026 0.062 0 0.05-0.034 0.134-0.054 0.333-7e-3 0.07-0.021 0.381-0.035 0.466-9e-3 0.036-0.021 0.079-0.05 0.079-0.043 0-0.058-0.036-0.058-0.093 0-0.049-6e-3 -0.171-0.042-0.255-0.049-0.112-0.12-0.197-0.501-0.238-0.12-0.015-0.891-0.022-0.968-0.022-0.029 0-0.043 0.022-0.043 0.071v1.947c0 0.05 7e-3 0.071 0.043 0.071 0.09 0 0.961 0 1.123-0.014 0.169-0.014 0.268-0.029 0.332-0.098 0.05-0.055 0.078-0.09 0.107-0.09 0.021 0 0.036 0.014 0.036 0.056 0 0.038-0.036 0.16-0.058 0.395-0.014 0.143-0.029 0.401-0.029 0.45 0 0.058 0 0.136-0.048 0.136-0.037 0-0.051-0.028-0.051-0.065 0-0.071 0-0.142-0.027-0.233-0.029-0.097-0.093-0.217-0.368-0.245-0.19-0.022-0.89-0.036-1.009-0.036-0.037 0-0.051 0.021-0.051 0.049v0.622c0 0.238-6e-3 1.058 0 1.208 0.022 0.487 0.127 0.579 0.819 0.579 0.185 0 0.493 0 0.679-0.078 0.185-0.077 0.269-0.22 0.318-0.508 0.014-0.078 0.029-0.106 0.063-0.106 0.042 0 0.042 0.056 0.042 0.106 0 0.056-0.057 0.536-0.091 0.682-0.049 0.186-0.105 0.186-0.382 0.186-1.066 0-1.538-0.044-1.745-0.044-0.035 0-0.48 0.021-0.692 0.021-0.076 0-0.111-0.014-0.111-0.056 0-0.021 0.014-0.043 0.055-0.043 0.063 0 0.148-0.014 0.212-0.028 0.143-0.029 0.178-0.182 0.206-0.387 0.034-0.295 0.034-0.854 0.034-1.532z"/><path d="m56.745 35.762c-0.686-0.616-0.854-1.418-0.854-2.089 0-0.474 0.161-1.301 0.789-1.93 0.426-0.422 1.068-0.755 2.158-0.755 0.281 0 0.675 0.022 1.024 0.085 0.265 0.048 0.493 0.092 0.72 0.105 0.075 7e-3 0.09 0.036 0.09 0.078 0 0.058-0.022 0.142-0.034 0.396-0.016 0.233-0.016 0.62-0.022 0.727-6e-3 0.106-0.02 0.15-0.061 0.15-0.051 0-0.058-0.051-0.058-0.15 0-0.276-0.113-0.565-0.297-0.721-0.246-0.21-0.79-0.402-1.411-0.402-0.941 0-1.378 0.276-1.627 0.515-0.517 0.494-0.635 1.123-0.635 1.844 0 1.35 1.039 2.586 2.549 2.586 0.529 0 0.947-0.063 1.228-0.355 0.151-0.155 0.242-0.465 0.264-0.593 0.014-0.078 0.028-0.107 0.07-0.107 0.034 0 0.047 0.05 0.047 0.107 0 0.051-0.082 0.664-0.153 0.906-0.042 0.132-0.056 0.146-0.185 0.202-0.283 0.114-0.82 0.164-1.271 0.164-1.06 0-1.773-0.263-2.331-0.763"/><path d="m66.647 34.379c0 0.678 0 1.237 0.035 1.532 0.022 0.205 0.065 0.358 0.277 0.387 0.097 0.014 0.252 0.028 0.316 0.028 0.044 0 0.057 0.022 0.057 0.043 0 0.035-0.036 0.056-0.113 0.056-0.388 0-0.832-0.021-0.867-0.021s-0.482 0.021-0.694 0.021c-0.077 0-0.112-0.014-0.112-0.056 0-0.021 0.013-0.043 0.056-0.043 0.064 0 0.15-0.014 0.213-0.028 0.14-0.029 0.175-0.182 0.203-0.387 0.036-0.295 0.036-0.854 0.036-1.532v-0.743c0-0.028-0.022-0.042-0.043-0.042h-2.995c-0.021 0-0.041 7e-3 -0.041 0.042v0.743c0 0.678 0 1.237 0.034 1.532 0.021 0.205 0.064 0.358 0.277 0.387 0.1 0.014 0.254 0.028 0.316 0.028 0.043 0 0.058 0.022 0.058 0.043 0 0.035-0.036 0.056-0.114 0.056-0.387 0-0.833-0.021-0.868-0.021s-0.479 0.021-0.691 0.021c-0.079 0-0.115-0.014-0.115-0.056 0-0.021 0.015-0.043 0.057-0.043 0.064 0 0.148-0.014 0.212-0.028 0.143-0.029 0.179-0.182 0.207-0.387 0.034-0.295 0.034-0.854 0.034-1.532v-1.243c0-1.102 0-1.301-0.014-1.527-0.015-0.239-0.07-0.353-0.304-0.402-0.056-0.014-0.177-0.022-0.241-0.022-0.028 0-0.055-0.013-0.055-0.042 0-0.043 0.034-0.058 0.111-0.058 0.32 0 0.764 0.022 0.799 0.022s0.481-0.022 0.693-0.022c0.079 0 0.113 0.015 0.113 0.058 0 0.029-0.028 0.042-0.056 0.042-0.049 0-0.092 8e-3 -0.178 0.022-0.191 0.035-0.247 0.156-0.263 0.402-0.012 0.226-0.012 0.425-0.012 1.527v0.149c0 0.034 0.02 0.04 0.041 0.04h2.995c0.021 0 0.043-6e-3 0.043-0.04v-0.149c0-1.102 0-1.301-0.015-1.527-0.014-0.239-0.07-0.353-0.301-0.402-0.058-0.014-0.179-0.022-0.241-0.022-0.03 0-0.059-0.013-0.059-0.042 0-0.043 0.036-0.058 0.115-0.058 0.317 0 0.764 0.022 0.799 0.022s0.479-0.022 0.69-0.022c0.078 0 0.113 0.015 0.113 0.058 0 0.029-0.028 0.042-0.057 0.042-0.049 0-0.09 8e-3 -0.173 0.022-0.193 0.035-0.251 0.156-0.264 0.402-0.014 0.226-0.014 0.425-0.014 1.527z"/><path d="m69.353 35.466c0.014 0.58 0.082 0.762 0.274 0.818 0.135 0.036 0.291 0.042 0.353 0.042 0.035 0 0.055 0.014 0.055 0.043 0 0.042-0.041 0.056-0.124 0.056-0.404 0-0.684-0.021-0.749-0.021-0.064 0-0.361 0.021-0.678 0.021-0.072 0-0.114-6e-3 -0.114-0.056 0-0.029 0.021-0.043 0.056-0.043 0.058 0 0.185-6e-3 0.292-0.042 0.175-0.049 0.21-0.252 0.21-0.896l8e-3 -4.046c0-0.277 0.021-0.354 0.077-0.354 0.057 0 0.178 0.155 0.249 0.226 0.105 0.12 1.158 1.257 2.245 2.422 0.7 0.75 1.468 1.609 1.695 1.845l-0.079-3.589c-6e-3 -0.458-0.057-0.615-0.274-0.671-0.127-0.028-0.29-0.036-0.347-0.036-0.049 0-0.057-0.02-0.057-0.049 0-0.043 0.057-0.051 0.141-0.051 0.318 0 0.658 0.022 0.736 0.022 0.079 0 0.311-0.022 0.6-0.022 0.078 0 0.127 8e-3 0.127 0.051 0 0.029-0.028 0.049-0.076 0.049-0.037 0-0.086 0-0.171 0.022-0.234 0.049-0.263 0.206-0.263 0.628l-0.014 4.139c0 0.467-0.014 0.501-0.063 0.501-0.055 0-0.139-0.078-0.516-0.452-0.076-0.071-1.094-1.107-1.841-1.913-0.82-0.882-1.619-1.773-1.843-2.028z"/><path d="m76.442 34.379c0 0.678 0 1.237 0.036 1.532 0.021 0.205 0.063 0.358 0.277 0.387 0.098 0.014 0.253 0.028 0.316 0.028 0.042 0 0.056 0.022 0.056 0.043 0 0.035-0.035 0.056-0.112 0.056-0.389 0-0.833-0.021-0.868-0.021-0.036 0-0.48 0.021-0.693 0.021-0.079 0-0.114-0.014-0.114-0.056 0-0.021 0.014-0.043 0.056-0.043 0.065 0 0.15-0.014 0.214-0.028 0.14-0.029 0.177-0.182 0.204-0.387 0.034-0.295 0.034-0.854 0.034-1.532v-1.243c0-1.102 0-1.301-0.013-1.527-0.013-0.239-0.085-0.36-0.239-0.395-0.078-0.021-0.171-0.029-0.221-0.029-0.028 0-0.056-0.013-0.056-0.042 0-0.043 0.035-0.058 0.113-0.058 0.235 0 0.679 0.022 0.715 0.022 0.035 0 0.479-0.022 0.693-0.022 0.076 0 0.112 0.015 0.112 0.058 0 0.029-0.03 0.042-0.057 0.042-0.049 0-0.091 8e-3 -0.175 0.022-0.194 0.035-0.25 0.156-0.264 0.402-0.014 0.226-0.014 0.425-0.014 1.527z"/><path d="m78.822 33.552c0-1.546 0.885-2.325 2.064-2.325 1.115 0 2.146 0.913 2.146 2.609 0 2.054-1.314 2.421-1.95 2.421-1.271 0-2.26-1.061-2.26-2.705m4.387 3.389c1.144 0.629 2.053 0.948 2.91 0.948 1.045 0 1.836-0.305 2.238-0.488 0.044-0.022 0.058-0.042 0.058-0.07 0-0.021-0.014-0.042-0.043-0.042-0.022 0-0.057 0.014-0.1 0.029-0.485 0.195-1.037 0.273-1.391 0.273-0.353 0-1.425-0.036-2.973-0.83l-1.449-0.75c0.467-0.308 1.252-1.131 1.252-2.375 0-1.637-1.187-2.648-2.775-2.648-1.95 0-2.784 1.618-2.784 2.763 0 1.27 0.805 2.774 2.763 2.774 0.372 0 0.853-0.106 1.107-0.241z"/><path d="m85.046 33.136c0-1.102 0-1.301-0.014-1.527-0.014-0.239-0.071-0.353-0.306-0.402-0.056-0.014-0.176-0.022-0.239-0.022-0.027 0-0.057-0.013-0.057-0.042 0-0.043 0.037-0.058 0.113-0.058 0.319 0 0.749 0.022 0.813 0.022s0.485-0.022 0.699-0.022c0.079 0 0.113 0.015 0.113 0.058 0 0.029-0.029 0.042-0.055 0.042-0.051 0-0.093 8e-3 -0.179 0.022-0.191 0.027-0.246 0.156-0.26 0.402-0.014 0.226-0.014 0.425-0.014 1.527v0.988c0 1.016 0.225 1.456 0.531 1.744 0.344 0.326 0.663 0.389 1.065 0.389 0.43 0 0.853-0.204 1.108-0.51 0.325-0.401 0.409-1.002 0.409-1.73v-0.881c0-1.102 0-1.301-0.014-1.527-0.014-0.239-0.07-0.353-0.302-0.402-0.056-0.014-0.177-0.022-0.241-0.022-0.03 0-0.057-0.013-0.057-0.042 0-0.043 0.034-0.058 0.113-0.058 0.319 0 0.708 0.022 0.75 0.022 0.049 0 0.38-0.022 0.594-0.022 0.077 0 0.111 0.015 0.111 0.058 0 0.029-0.027 0.042-0.055 0.042-0.049 0-0.092 0-0.178 0.022-0.192 0.035-0.247 0.156-0.261 0.402-0.015 0.226-0.015 0.425-0.015 1.527v0.756c0 0.76-0.084 1.61-0.65 2.111-0.507 0.452-1.037 0.522-1.455 0.522-0.238 0-0.952-0.028-1.453-0.502-0.347-0.332-0.614-0.827-0.614-1.857z"/><path d="m91.316 33.136c0-1.102 0-1.301-0.014-1.527-0.014-0.239-0.07-0.353-0.304-0.402-0.055-0.014-0.175-0.022-0.239-0.022-0.029 0-0.057-0.013-0.057-0.042 0-0.043 0.035-0.058 0.113-0.058 0.317 0 0.763 0.022 0.798 0.022 0.048 0 1.455 0 1.617-7e-3 0.134-7e-3 0.246-0.022 0.304-0.035 0.035-7e-3 0.064-0.034 0.099-0.034 0.023 0 0.028 0.027 0.028 0.062 0 0.05-0.035 0.134-0.057 0.333-6e-3 0.07-0.021 0.381-0.035 0.466-7e-3 0.036-0.021 0.079-0.049 0.079-0.044 0-0.058-0.036-0.058-0.093 0-0.049-6e-3 -0.171-0.042-0.255-0.048-0.112-0.12-0.197-0.5-0.238-0.12-0.015-0.89-0.022-0.968-0.022-0.027 0-0.043 0.022-0.043 0.071v1.947c0 0.05 9e-3 0.071 0.043 0.071 0.091 0 0.959 0 1.123-0.014 0.169-0.014 0.268-0.029 0.33-0.098 0.051-0.055 0.078-0.09 0.107-0.09 0.022 0 0.036 0.014 0.036 0.056 0 0.038-0.036 0.16-0.057 0.395-0.015 0.143-0.029 0.401-0.029 0.45 0 0.058 0 0.136-0.049 0.136-0.034 0-0.049-0.028-0.049-0.065 0-0.071 0-0.142-0.027-0.233-0.03-0.097-0.093-0.217-0.368-0.245-0.19-0.022-0.89-0.036-1.009-0.036-0.035 0-0.051 0.021-0.051 0.049v0.622c0 0.238-5e-3 1.058 0 1.208 0.021 0.487 0.129 0.579 0.819 0.579 0.183 0 0.495 0 0.677-0.078 0.186-0.077 0.272-0.22 0.32-0.508 0.015-0.078 0.029-0.106 0.063-0.106 0.043 0 0.043 0.056 0.043 0.106 0 0.056-0.056 0.536-0.091 0.682-0.049 0.186-0.107 0.186-0.383 0.186-1.068 0-1.539-0.044-1.744-0.044-0.035 0-0.481 0.021-0.692 0.021-0.077 0-0.112-0.014-0.112-0.056 0-0.021 0.014-0.043 0.056-0.043 0.064 0 0.148-0.014 0.209-0.028 0.143-0.029 0.178-0.182 0.207-0.387 0.035-0.295 0.035-0.854 0.035-1.532z"/><path d="m0.667 41.609c0-1.101 0-1.298-0.014-1.525-0.014-0.241-0.07-0.352-0.304-0.401-0.056-0.014-0.176-0.021-0.24-0.021-0.028 0-0.056-0.014-0.056-0.042 0-0.044 0.035-0.058 0.113-0.058 0.318 0 0.762 0.023 0.798 0.023 0.141 0 1.574 0 1.737-9e-3 0.134-7e-3 0.247-7e-3 0.311-0.028 0.043-0.014 0.071-0.042 0.099-0.042 0.029 0 0.042 0.028 0.042 0.063 0 0.051-0.035 0.135-0.057 0.331-6e-3 0.071-0.02 0.383-0.035 0.465-6e-3 0.035-0.021 0.079-0.056 0.079s-0.049-0.035-0.049-0.086c0-0.055-0.022-0.174-0.064-0.266s-0.205-0.22-0.48-0.227l-1.088-0.022c-0.042 0-0.064 0.022-0.064 0.079v1.95c0 0.044 8e-3 0.063 0.05 0.063l0.904-7e-3c0.12 0 0.219 0 0.318-7e-3 0.169-0.014 0.261-0.035 0.324-0.127 0.029-0.037 0.05-0.072 0.078-0.072s0.036 0.022 0.036 0.058c0 0.042-0.036 0.164-0.057 0.393-0.014 0.142-0.028 0.427-0.028 0.476 0 0.061 0 0.133-0.05 0.133-0.035 0-0.049-0.029-0.049-0.064-7e-3 -0.069-0.014-0.167-0.042-0.253-0.036-0.099-0.148-0.227-0.368-0.255-0.176-0.021-0.946-0.021-1.066-0.021-0.036 0-0.05 0.012-0.05 0.063v0.601c0 0.677 0 1.235 0.036 1.533 0.021 0.204 0.063 0.36 0.275 0.388 0.099 0.015 0.255 0.029 0.318 0.029 0.042 0 0.056 0.021 0.056 0.042 0 0.037-0.035 0.056-0.113 0.056-0.388 0-0.833-0.019-0.868-0.019-0.036 0-0.48 0.019-0.692 0.019-0.079 0-0.113-0.012-0.113-0.056 0-0.021 0.014-0.042 0.056-0.042 0.064 0 0.148-0.014 0.213-0.029 0.14-0.028 0.176-0.184 0.204-0.388 0.035-0.298 0.035-0.856 0.035-1.533z"/><path d="m6.896 38.6c0.035 0.064 0 0.086-0.028 0.086-0.021 0-0.092-0.015-0.212 0-0.346 0.035-0.84 0.198-1.073 0.298-0.05 0.021-0.092 0.035-0.106 0.035s-0.036-0.014-0.036-0.043c0-0.021 0.014-0.036 0.05-0.057 0.254-0.177 0.911-0.572 0.961-0.6 0.119-0.071 0.162-0.093 0.197-0.093 0.021 0 0.035 0.015 0.07 0.065 0.05 0.07 0.099 0.17 0.177 0.309m-2.048 3.009c0-1.101 0-1.298-0.014-1.525-0.014-0.241-0.071-0.352-0.303-0.401-0.058-0.014-0.177-0.021-0.241-0.021-0.028 0-0.056-0.014-0.056-0.042 0-0.044 0.035-0.058 0.113-0.058 0.318 0 0.762 0.023 0.798 0.023 0.049 0 1.455 0 1.618-9e-3 0.133-7e-3 0.246-0.021 0.303-0.035 0.035-7e-3 0.064-0.035 0.099-0.035 0.021 0 0.028 0.028 0.028 0.063 0 0.051-0.035 0.135-0.056 0.331-7e-3 0.071-0.022 0.383-0.036 0.465-7e-3 0.035-0.021 0.079-0.049 0.079-0.043 0-0.057-0.035-0.057-0.092 0-0.049-7e-3 -0.168-0.042-0.253-0.05-0.115-0.121-0.199-0.501-0.241-0.121-0.015-0.89-0.022-0.968-0.022-0.029 0-0.043 0.022-0.043 0.071v1.95c0 0.05 7e-3 0.071 0.043 0.071 0.092 0 0.96 0 1.123-0.012 0.169-0.016 0.268-0.03 0.331-0.1 0.05-0.059 0.078-0.094 0.107-0.094 0.021 0 0.035 0.014 0.035 0.058 0 0.042-0.035 0.164-0.057 0.393-0.014 0.142-0.028 0.406-0.028 0.454 0 0.056 0 0.132-0.05 0.132-0.034 0-0.049-0.028-0.049-0.063 0-0.069 0-0.138-0.028-0.231-0.028-0.099-0.092-0.22-0.367-0.248-0.191-0.021-0.89-0.035-1.01-0.035-0.036 0-0.05 0.019-0.05 0.049v0.622c0 0.241-7e-3 1.058 0 1.207 0.022 0.488 0.128 0.579 0.82 0.579 0.183 0 0.494 0 0.677-0.079 0.184-0.077 0.269-0.216 0.319-0.507 0.014-0.078 0.028-0.107 0.063-0.107 0.042 0 0.042 0.058 0.042 0.107 0 0.057-0.056 0.537-0.091 0.686-0.05 0.184-0.106 0.184-0.382 0.184-1.066 0-1.54-0.041-1.744-0.041-0.036 0-0.48 0.019-0.692 0.019-0.078 0-0.114-0.012-0.114-0.056 0-0.021 0.015-0.042 0.057-0.042 0.063 0 0.148-0.014 0.212-0.029 0.141-0.028 0.177-0.184 0.205-0.388 0.035-0.298 0.035-0.856 0.035-1.533z"/><path d="m9.75 41.496c0-0.545 0-1.262 7e-3 -1.504 0-0.078 0.02-0.113 0.084-0.141 0.057-0.028 0.318-0.051 0.459-0.051 0.841 0 1.647 0.1 2.309 0.801 0.291 0.303 0.679 0.882 0.679 1.779 0 0.65-0.198 1.329-0.565 1.687-0.417 0.416-1.024 0.658-1.681 0.658-0.833 0-1.109-0.149-1.201-0.283-0.057-0.078-0.071-0.36-0.077-0.538-7e-3 -0.131-0.014-0.781-0.014-1.531zm-0.594 1.357c0 0.677 0 1.235-0.036 1.533-0.027 0.204-0.063 0.36-0.205 0.388-0.063 0.015-0.147 0.029-0.211 0.029-0.042 0-0.056 0.021-0.056 0.042 0 0.044 0.035 0.056 0.113 0.056 0.211 0 0.657-0.019 0.692-0.019 0.07 0 0.96 0.083 1.568 0.083 1.2 0 1.835-0.496 2.14-0.812 0.395-0.416 0.762-1.102 0.762-1.992 0-0.84-0.332-1.426-0.685-1.796-0.84-0.867-2.132-0.803-2.831-0.803-0.425 0-0.869 0.023-0.954 0.023-0.036 0-0.481-0.023-0.798-0.023-0.078 0-0.113 0.014-0.113 0.058 0 0.028 0.028 0.042 0.056 0.042 0.064 0 0.184 7e-3 0.24 0.021 0.233 0.049 0.29 0.16 0.304 0.401 0.014 0.227 0.014 0.424 0.014 1.525z"/><path d="m17.398 38.6c0.035 0.064 0 0.086-0.028 0.086-0.021 0-0.092-0.015-0.212 0-0.346 0.035-0.841 0.198-1.074 0.298-0.049 0.021-0.092 0.035-0.105 0.035-0.014 0-0.036-0.014-0.036-0.043 0-0.021 0.014-0.036 0.049-0.057 0.255-0.177 0.911-0.572 0.961-0.6 0.12-0.071 0.163-0.093 0.198-0.093 0.021 0 0.035 0.015 0.07 0.065 0.05 0.07 0.099 0.17 0.177 0.309m-2.048 3.009c0-1.101 0-1.298-0.014-1.525-0.014-0.241-0.071-0.352-0.304-0.401-0.056-0.014-0.176-0.021-0.24-0.021-0.028 0-0.056-0.014-0.056-0.042 0-0.044 0.035-0.058 0.113-0.058 0.317 0 0.762 0.023 0.798 0.023 0.049 0 1.454 0 1.617-9e-3 0.134-7e-3 0.247-0.021 0.304-0.035 0.035-7e-3 0.063-0.035 0.098-0.035 0.022 0 0.029 0.028 0.029 0.063 0 0.051-0.036 0.135-0.057 0.331-7e-3 0.071-0.021 0.383-0.035 0.465-8e-3 0.035-0.021 0.079-0.049 0.079-0.043 0-0.057-0.035-0.057-0.092 0-0.049-7e-3 -0.168-0.043-0.253-0.049-0.115-0.12-0.199-0.501-0.241-0.12-0.015-0.89-0.022-0.968-0.022-0.028 0-0.042 0.022-0.042 0.071v1.95c0 0.05 8e-3 0.071 0.042 0.071 0.092 0 0.961 0 1.124-0.012 0.169-0.016 0.268-0.03 0.332-0.1 0.049-0.059 0.077-0.094 0.105-0.094 0.022 0 0.036 0.014 0.036 0.058 0 0.042-0.036 0.164-0.057 0.393-0.014 0.142-0.028 0.406-0.028 0.454 0 0.056 0 0.132-0.05 0.132-0.035 0-0.049-0.028-0.049-0.063 0-0.069 0-0.138-0.028-0.231-0.028-0.099-0.092-0.22-0.368-0.248-0.19-0.021-0.889-0.035-1.01-0.035-0.035 0-0.049 0.019-0.049 0.049v0.622c0 0.241-7e-3 1.058 0 1.207 0.022 0.488 0.127 0.579 0.82 0.579 0.183 0 0.494 0 0.678-0.079 0.183-0.077 0.267-0.216 0.317-0.507 0.014-0.078 0.029-0.107 0.064-0.107 0.042 0 0.042 0.058 0.042 0.107 0 0.057-0.057 0.537-0.092 0.686-0.049 0.184-0.106 0.184-0.381 0.184-1.067 0-1.539-0.041-1.744-0.041-0.036 0-0.481 0.019-0.693 0.019-0.078 0-0.112-0.012-0.112-0.056 0-0.021 0.014-0.042 0.056-0.042 0.063 0 0.148-0.014 0.212-0.029 0.141-0.028 0.176-0.184 0.204-0.388 0.036-0.298 0.036-0.856 0.036-1.533z"/><path d="m20.223 39.914c0-0.042 0.021-0.071 0.057-0.084 0.07-0.023 0.261-0.044 0.473-0.044 0.756 0 1.221 0.532 1.221 1.414 0 0.536-0.183 0.917-0.431 1.087-0.162 0.115-0.36 0.135-0.529 0.135-0.311 0-0.636-0.049-0.742-0.113-0.035-0.022-0.049-0.049-0.049-0.085zm-0.565 2.939c0 0.677 0 1.235-0.035 1.533-0.029 0.204-0.064 0.36-0.205 0.388-0.063 0.015-0.149 0.029-0.212 0.029-0.042 0-0.057 0.021-0.057 0.042 0 0.044 0.036 0.056 0.113 0.056 0.212 0 0.658-0.019 0.664-0.019 0.035 0 0.481 0.019 0.869 0.019 0.078 0 0.113-0.019 0.113-0.056 0-0.021-0.014-0.042-0.056-0.042-0.064 0-0.219-0.014-0.319-0.029-0.211-0.028-0.253-0.184-0.275-0.388-0.035-0.298-0.035-0.856-0.035-1.533v-0.17c0-0.034 0.014-0.056 0.049-0.056l0.869 0.014c0.042 0 0.064 0.015 0.092 0.042 0.142 0.184 0.473 0.656 0.77 1.047 0.402 0.529 0.65 0.874 0.953 1.038 0.184 0.099 0.36 0.133 0.756 0.133h0.501c0.128 0 0.169-0.012 0.169-0.056 0-0.021-0.027-0.042-0.063-0.042-0.042 0-0.141 0-0.276-0.022-0.176-0.028-0.479-0.107-0.861-0.506-0.409-0.44-0.89-1.068-1.469-1.81 0.636-0.586 0.854-1.107 0.854-1.631 0-0.489-0.31-0.834-0.486-0.962-0.375-0.266-0.848-0.31-1.293-0.31-0.219 0-0.756 0.023-0.834 0.023-0.034 0-0.48-0.023-0.798-0.023-0.077 0-0.112 0.014-0.112 0.058 0 0.028 0.027 0.042 0.056 0.042 0.064 0 0.184 7e-3 0.24 0.021 0.234 0.049 0.29 0.16 0.303 0.401 0.015 0.227 0.015 0.424 0.015 1.525z"/><path d="m25.385 42.565c-0.02 0-0.035-0.014-0.02-0.051l0.621-1.907c0.035-0.107 0.07-0.107 0.105 0l0.672 1.907c7e-3 0.03 7e-3 0.051-0.029 0.051zm-0.988 1.558c-0.127 0.353-0.269 0.623-0.593 0.666-0.057 7e-3 -0.156 0.014-0.206 0.014-0.034 0-0.063 0.014-0.063 0.042 0 0.044 0.042 0.056 0.134 0.056 0.332 0 0.72-0.019 0.798-0.019s0.382 0.019 0.551 0.019c0.064 0 0.106-0.012 0.106-0.056 0-0.028-0.021-0.042-0.07-0.042h-0.071c-0.12 0-0.269-0.064-0.269-0.206 0-0.128 0.036-0.294 0.099-0.474l0.424-1.25c0.014-0.034 0.035-0.055 0.071-0.055h1.518c0.036 0 0.05 0.013 0.064 0.041l0.657 1.738c0.042 0.113 0 0.177-0.043 0.192-0.028 7e-3 -0.049 0.021-0.049 0.049 0 0.044 0.077 0.044 0.212 0.051 0.487 0.012 1.003 0.012 1.108 0.012 0.078 0 0.142-0.012 0.142-0.056 0-0.035-0.028-0.042-0.071-0.042-0.071 0-0.176-7e-3 -0.283-0.042-0.148-0.043-0.352-0.157-0.606-0.786-0.431-1.073-1.541-3.991-1.647-4.258-0.084-0.219-0.112-0.254-0.155-0.254-0.042 0-0.07 0.043-0.155 0.275z"/><path d="m30.52 42.867c0 1.037 0.029 1.492 0.155 1.616 0.113 0.114 0.297 0.163 0.848 0.163 0.374 0 0.684-7e-3 0.854-0.212 0.092-0.11 0.163-0.288 0.184-0.423 7e-3 -0.058 0.021-0.093 0.064-0.093 0.035 0 0.042 0.028 0.042 0.107 0 0.078-0.05 0.5-0.106 0.707-0.049 0.164-0.07 0.191-0.445 0.191-1.017 0-1.483-0.041-1.893-0.041-0.063 0-0.48 0.019-0.692 0.019-0.078 0-0.113-0.012-0.113-0.056 0-0.021 0.014-0.042 0.057-0.042 0.063 0 0.148-0.014 0.211-0.029 0.142-0.028 0.177-0.184 0.206-0.388 0.035-0.298 0.035-0.856 0.035-1.533v-1.244c0-1.101 0-1.298-0.015-1.525-0.014-0.241-0.07-0.352-0.303-0.401-0.057-0.014-0.177-0.021-0.241-0.021-0.028 0-0.056-0.014-0.056-0.042 0-0.044 0.036-0.058 0.114-0.058 0.317 0 0.762 0.023 0.797 0.023s0.552-0.023 0.763-0.023c0.078 0 0.113 0.014 0.113 0.058 0 0.028-0.028 0.042-0.057 0.042-0.049 0-0.148 7e-3 -0.233 0.021-0.204 0.034-0.26 0.153-0.275 0.401-0.014 0.227-0.014 0.424-0.014 1.525z"/><path d="m34.107 41.609c0-1.101 0-1.298-0.014-1.525-0.014-0.241-0.07-0.352-0.303-0.401-0.057-0.014-0.177-0.021-0.241-0.021-0.028 0-0.056-0.014-0.056-0.042 0-0.044 0.036-0.058 0.113-0.058 0.318 0 0.763 0.023 0.798 0.023 0.049 0 1.456 0 1.618-9e-3 0.134-7e-3 0.247-0.021 0.303-0.035 0.035-7e-3 0.063-0.035 0.099-0.035 0.022 0 0.028 0.028 0.028 0.063 0 0.051-0.035 0.135-0.056 0.331-8e-3 0.071-0.022 0.383-0.036 0.465-7e-3 0.035-0.021 0.079-0.049 0.079-0.042 0-0.056-0.035-0.056-0.092 0-0.049-7e-3 -0.168-0.043-0.253-0.049-0.115-0.12-0.199-0.501-0.241-0.12-0.015-0.89-0.022-0.968-0.022-0.028 0-0.043 0.022-0.043 0.071v1.95c0 0.05 8e-3 0.071 0.043 0.071 0.092 0 0.961 0 1.123-0.012 0.17-0.016 0.269-0.03 0.332-0.1 0.05-0.059 0.078-0.094 0.106-0.094 0.021 0 0.035 0.014 0.035 0.058 0 0.042-0.035 0.164-0.056 0.393-0.014 0.142-0.028 0.406-0.028 0.454 0 0.056 0 0.132-0.05 0.132-0.035 0-0.049-0.028-0.049-0.063 0-0.069 0-0.138-0.028-0.231-0.029-0.099-0.092-0.22-0.368-0.248-0.191-0.021-0.89-0.035-1.01-0.035-0.035 0-0.05 0.019-0.05 0.049v0.622c0 0.241-6e-3 1.058 0 1.207 0.022 0.488 0.129 0.579 0.82 0.579 0.184 0 0.494 0 0.678-0.079 0.183-0.077 0.269-0.216 0.318-0.507 0.014-0.078 0.028-0.107 0.064-0.107 0.042 0 0.042 0.058 0.042 0.107 0 0.057-0.056 0.537-0.092 0.686-0.049 0.184-0.106 0.184-0.381 0.184-1.067 0-1.54-0.041-1.745-0.041-0.035 0-0.48 0.019-0.692 0.019-0.078 0-0.113-0.012-0.113-0.056 0-0.021 0.014-0.042 0.056-0.042 0.064 0 0.149-0.014 0.212-0.029 0.142-0.028 0.176-0.184 0.206-0.388 0.034-0.298 0.034-0.856 0.034-1.533z"/><path d="m41.304 41.496c0-0.545 0-1.262 7e-3 -1.504 0-0.078 0.021-0.113 0.085-0.141 0.056-0.028 0.318-0.051 0.459-0.051 0.84 0 1.645 0.1 2.309 0.801 0.29 0.303 0.678 0.882 0.678 1.779 0 0.65-0.198 1.329-0.565 1.687-0.416 0.416-1.024 0.658-1.681 0.658-0.833 0-1.108-0.149-1.2-0.283-0.057-0.078-0.071-0.36-0.078-0.538-7e-3 -0.131-0.014-0.781-0.014-1.531zm-0.594 1.357c0 0.677 0 1.235-0.034 1.533-0.029 0.204-0.064 0.36-0.205 0.388-0.064 0.015-0.149 0.029-0.212 0.029-0.042 0-0.056 0.021-0.056 0.042 0 0.044 0.035 0.056 0.112 0.056 0.212 0 0.658-0.019 0.692-0.019 0.071 0 0.961 0.083 1.569 0.083 1.199 0 1.836-0.496 2.14-0.812 0.395-0.416 0.762-1.102 0.762-1.992 0-0.84-0.332-1.426-0.686-1.796-0.84-0.867-2.132-0.803-2.831-0.803-0.424 0-0.868 0.023-0.954 0.023-0.034 0-0.48-0.023-0.797-0.023-0.078 0-0.113 0.014-0.113 0.058 0 0.028 0.028 0.042 0.055 0.042 0.065 0 0.185 7e-3 0.241 0.021 0.233 0.049 0.29 0.16 0.304 0.401 0.013 0.227 0.013 0.424 0.013 1.525z"/><path d="m47.187 41.609c0-1.101 0-1.298-0.014-1.525-0.015-0.241-0.07-0.352-0.304-0.401-0.056-0.014-0.177-0.021-0.24-0.021-0.028 0-0.057-0.014-0.057-0.042 0-0.044 0.036-0.058 0.114-0.058 0.317 0 0.762 0.023 0.798 0.023 0.049 0 1.454 0 1.616-9e-3 0.135-7e-3 0.249-0.021 0.305-0.035 0.036-7e-3 0.063-0.035 0.098-0.035 0.022 0 0.03 0.028 0.03 0.063 0 0.051-0.037 0.135-0.058 0.331-7e-3 0.071-0.021 0.383-0.034 0.465-7e-3 0.035-0.021 0.079-0.048 0.079-0.044 0-0.059-0.035-0.059-0.092 0-0.049-6e-3 -0.168-0.041-0.253-0.051-0.115-0.121-0.199-0.502-0.241-0.12-0.015-0.891-0.022-0.968-0.022-0.028 0-0.042 0.022-0.042 0.071v1.95c0 0.05 6e-3 0.071 0.042 0.071 0.091 0 0.96 0 1.123-0.012 0.169-0.016 0.268-0.03 0.332-0.1 0.05-0.059 0.078-0.094 0.106-0.094 0.021 0 0.036 0.014 0.036 0.058 0 0.042-0.036 0.164-0.057 0.393-0.014 0.142-0.029 0.406-0.029 0.454 0 0.056 0 0.132-0.049 0.132-0.035 0-0.05-0.028-0.05-0.063 0-0.069 0-0.138-0.028-0.231-0.028-0.099-0.092-0.22-0.366-0.248-0.192-0.021-0.892-0.035-1.011-0.035-0.035 0-0.049 0.019-0.049 0.049v0.622c0 0.241-8e-3 1.058 0 1.207 0.021 0.488 0.124 0.579 0.818 0.579 0.184 0 0.495 0 0.679-0.079 0.183-0.077 0.268-0.216 0.317-0.507 0.013-0.078 0.027-0.107 0.062-0.107 0.044 0 0.044 0.058 0.044 0.107 0 0.057-0.058 0.537-0.093 0.686-0.048 0.184-0.105 0.184-0.379 0.184-1.067 0-1.539-0.041-1.745-0.041-0.036 0-0.481 0.019-0.692 0.019-0.078 0-0.113-0.012-0.113-0.056 0-0.021 0.013-0.042 0.056-0.042 0.064 0 0.149-0.014 0.212-0.029 0.142-0.028 0.176-0.184 0.204-0.388 0.036-0.298 0.036-0.856 0.036-1.533z"/><path d="m54.384 42.867c0 1.037 0.028 1.492 0.156 1.616 0.112 0.114 0.295 0.163 0.847 0.163 0.374 0 0.683-7e-3 0.854-0.212 0.093-0.11 0.163-0.288 0.184-0.423 7e-3 -0.058 0.021-0.093 0.063-0.093 0.035 0 0.042 0.028 0.042 0.107 0 0.078-0.049 0.5-0.105 0.707-0.048 0.164-0.07 0.191-0.445 0.191-1.018 0-1.483-0.041-1.892-0.041-0.064 0-0.481 0.019-0.692 0.019-0.079 0-0.115-0.012-0.115-0.056 0-0.021 0.015-0.042 0.057-0.042 0.064 0 0.15-0.014 0.212-0.029 0.14-0.028 0.176-0.184 0.204-0.388 0.037-0.298 0.037-0.856 0.037-1.533v-1.244c0-1.101 0-1.298-0.016-1.525-0.014-0.241-0.07-0.352-0.302-0.401-0.056-0.014-0.177-0.021-0.24-0.021-0.029 0-0.058-0.014-0.058-0.042 0-0.044 0.037-0.058 0.114-0.058 0.318 0 0.764 0.023 0.799 0.023 0.034 0 0.551-0.023 0.762-0.023 0.076 0 0.112 0.014 0.112 0.058 0 0.028-0.029 0.042-0.057 0.042-0.049 0-0.147 7e-3 -0.231 0.021-0.206 0.034-0.262 0.153-0.276 0.401-0.014 0.227-0.014 0.424-0.014 1.525z"/><path d="m58.514 42.565c-0.021 0-0.035-0.014-0.021-0.051l0.621-1.907c0.036-0.107 0.072-0.107 0.108 0l0.671 1.907c8e-3 0.03 8e-3 0.051-0.029 0.051zm-0.986 1.558c-0.129 0.353-0.271 0.623-0.593 0.666-0.059 7e-3 -0.158 0.014-0.208 0.014-0.035 0-0.064 0.014-0.064 0.042 0 0.044 0.043 0.056 0.136 0.056 0.331 0 0.721-0.019 0.799-0.019 0.077 0 0.38 0.019 0.552 0.019 0.063 0 0.104-0.012 0.104-0.056 0-0.028-0.02-0.042-0.069-0.042h-0.071c-0.122 0-0.271-0.064-0.271-0.206 0-0.128 0.035-0.294 0.1-0.474l0.423-1.25c0.014-0.034 0.035-0.055 0.07-0.055h1.521c0.035 0 0.048 0.013 0.063 0.041l0.655 1.738c0.043 0.113 0 0.177-0.042 0.192-0.028 7e-3 -0.048 0.021-0.048 0.049 0 0.044 0.075 0.044 0.211 0.051 0.486 0.012 1.002 0.012 1.109 0.012 0.077 0 0.141-0.012 0.141-0.056 0-0.035-0.029-0.042-0.071-0.042-0.07 0-0.177-7e-3 -0.28-0.042-0.15-0.043-0.356-0.157-0.608-0.786-0.433-1.073-1.541-3.991-1.646-4.258-0.084-0.219-0.112-0.254-0.155-0.254s-0.072 0.043-0.156 0.275z"/><path d="m62.646 41.609c0-1.101 0-1.298-0.014-1.525-0.015-0.241-0.07-0.352-0.302-0.401-0.056-0.014-0.177-0.021-0.241-0.021-0.03 0-0.058-0.014-0.058-0.042 0-0.044 0.037-0.058 0.115-0.058 0.316 0 0.749 0.023 0.811 0.023 0.063 0 0.489-0.023 0.698-0.023 0.079 0 0.113 0.014 0.113 0.058 0 0.028-0.026 0.042-0.055 0.042-0.051 0-0.093 7e-3 -0.177 0.021-0.19 0.027-0.247 0.153-0.261 0.401-0.013 0.227-0.013 0.424-0.013 1.525v0.991c0 1.017 0.226 1.453 0.528 1.744 0.347 0.324 0.665 0.388 1.067 0.388 0.43 0 0.856-0.207 1.108-0.508 0.326-0.403 0.41-1.004 0.41-1.731v-0.884c0-1.101 0-1.298-0.013-1.525-0.012-0.241-0.071-0.352-0.305-0.401-0.057-0.014-0.177-0.021-0.238-0.021-0.027 0-0.057-0.014-0.057-0.042 0-0.044 0.036-0.058 0.112-0.058 0.317 0 0.705 0.023 0.749 0.023 0.049 0 0.382-0.023 0.593-0.023 0.077 0 0.113 0.014 0.113 0.058 0 0.028-0.028 0.042-0.057 0.042-0.049 0-0.092 0-0.178 0.021-0.187 0.034-0.245 0.153-0.259 0.401-0.014 0.227-0.014 0.424-0.014 1.525v0.757c0 0.765-0.086 1.609-0.65 2.11-0.508 0.455-1.037 0.524-1.455 0.524-0.239 0-0.954-0.028-1.454-0.503-0.346-0.33-0.616-0.824-0.616-1.856z"/><path d="m68.465 44.81c-0.099-0.049-0.106-0.078-0.106-0.269 0-0.353 0.028-0.637 0.037-0.748 7e-3 -0.076 0.021-0.113 0.056-0.113 0.042 0 0.049 0.021 0.049 0.078 0 0.063 0 0.16 0.021 0.26 0.107 0.523 0.573 0.721 1.046 0.721 0.678 0 1.009-0.487 1.009-0.939 0-0.489-0.203-0.77-0.811-1.27l-0.319-0.264c-0.747-0.614-0.918-1.051-0.918-1.531 0-0.757 0.566-1.272 1.462-1.272 0.276 0 0.481 0.028 0.657 0.071 0.134 0.028 0.191 0.035 0.247 0.035 0.057 0 0.073 0.016 0.073 0.051s-0.029 0.266-0.029 0.745c0 0.115-0.014 0.164-0.051 0.164-0.042 0-0.049-0.036-0.056-0.092-7e-3 -0.085-0.05-0.275-0.093-0.353-0.042-0.077-0.232-0.374-0.88-0.374-0.489 0-0.872 0.304-0.872 0.819 0 0.402 0.2 0.642 0.865 1.186l0.195 0.157c0.834 0.658 1.032 1.095 1.032 1.658 0 0.291-0.111 0.829-0.6 1.173-0.304 0.214-0.684 0.297-1.066 0.297-0.333 0-0.656-0.049-0.948-0.19"/><path d="m73.347 42.565c-0.021 0-0.035-0.014-0.021-0.051l0.622-1.907c0.035-0.107 0.069-0.107 0.103 0l0.672 1.907c7e-3 0.03 7e-3 0.051-0.03 0.051zm-0.99 1.558c-0.126 0.353-0.267 0.623-0.595 0.666-0.056 7e-3 -0.153 0.014-0.201 0.014-0.036 0-0.064 0.014-0.064 0.042 0 0.044 0.042 0.056 0.133 0.056 0.332 0 0.718-0.019 0.797-0.019 0.077 0 0.383 0.019 0.551 0.019 0.063 0 0.105-0.012 0.105-0.056 0-0.028-0.021-0.042-0.069-0.042h-0.073c-0.118 0-0.264-0.064-0.264-0.206 0-0.128 0.035-0.294 0.098-0.474l0.423-1.25c0.014-0.034 0.036-0.055 0.072-0.055h1.517c0.034 0 0.048 0.013 0.062 0.041l0.658 1.738c0.042 0.113 0 0.177-0.042 0.192-0.029 7e-3 -0.051 0.021-0.051 0.049 0 0.044 0.079 0.044 0.215 0.051 0.486 0.012 1 0.012 1.108 0.012 0.079 0 0.142-0.012 0.142-0.056 0-0.035-0.029-0.042-0.072-0.042-0.07 0-0.178-7e-3 -0.283-0.042-0.149-0.043-0.353-0.157-0.608-0.786-0.43-1.073-1.539-3.991-1.646-4.258-0.084-0.219-0.113-0.254-0.156-0.254-0.041 0-0.069 0.043-0.153 0.275z"/><path d="m78.078 43.939c0.015 0.58 0.084 0.764 0.275 0.822 0.136 0.035 0.29 0.042 0.353 0.042 0.035 0 0.057 0.014 0.057 0.042 0 0.044-0.043 0.056-0.126 0.056-0.405 0-0.685-0.019-0.749-0.019-0.065 0-0.361 0.019-0.679 0.019-0.071 0-0.113-5e-3 -0.113-0.056 0-0.028 0.021-0.042 0.056-0.042 0.057 0 0.185-7e-3 0.291-0.042 0.174-0.051 0.21-0.257 0.21-0.898l6e-3 -4.049c0-0.273 0.023-0.351 0.079-0.351 0.057 0 0.178 0.157 0.249 0.227 0.106 0.117 1.158 1.255 2.245 2.421 0.7 0.748 1.467 1.613 1.695 1.842l-0.078-3.588c-8e-3 -0.458-0.056-0.613-0.274-0.668-0.128-0.028-0.292-0.035-0.348-0.035-0.05 0-0.057-0.021-0.057-0.049 0-0.044 0.057-0.051 0.142-0.051 0.318 0 0.658 0.023 0.736 0.023 0.077 0 0.308-0.023 0.6-0.023 0.077 0 0.127 7e-3 0.127 0.051 0 0.028-0.028 0.049-0.078 0.049-0.035 0-0.084 0-0.17 0.021-0.234 0.049-0.261 0.203-0.261 0.628l-0.014 4.138c0 0.468-0.015 0.502-0.063 0.502-0.055 0-0.141-0.078-0.516-0.454-0.078-0.07-1.096-1.108-1.844-1.911-0.818-0.884-1.618-1.773-1.842-2.029z"/><path d="m84.765 43.939c0.015 0.58 0.086 0.764 0.277 0.822 0.134 0.035 0.288 0.042 0.353 0.042 0.035 0 0.056 0.014 0.056 0.042 0 0.044-0.042 0.056-0.129 0.056-0.401 0-0.684-0.019-0.747-0.019-0.064 0-0.36 0.019-0.678 0.019-0.07 0-0.112-5e-3 -0.112-0.056 0-0.028 0.022-0.042 0.057-0.042 0.055 0 0.182-7e-3 0.287-0.042 0.177-0.051 0.214-0.257 0.214-0.898l7e-3 -4.049c0-0.273 0.021-0.351 0.077-0.351s0.177 0.157 0.246 0.227c0.107 0.117 1.159 1.255 2.247 2.421 0.698 0.748 1.469 1.613 1.695 1.842l-0.076-3.588c-8e-3 -0.458-0.057-0.613-0.277-0.668-0.128-0.028-0.29-0.035-0.345-0.035-0.049 0-0.056-0.021-0.056-0.049 0-0.044 0.056-0.051 0.14-0.051 0.318 0 0.656 0.023 0.734 0.023 0.077 0 0.31-0.023 0.6-0.023 0.077 0 0.126 7e-3 0.126 0.051 0 0.028-0.027 0.049-0.078 0.049-0.035 0-0.085 0-0.168 0.021-0.232 0.049-0.261 0.203-0.261 0.628l-0.014 4.138c0 0.468-0.015 0.502-0.063 0.502-0.058 0-0.142-0.078-0.515-0.454-0.08-0.07-1.094-1.108-1.846-1.911-0.818-0.884-1.616-1.773-1.843-2.029z"/><path d="m91.264 41.609c0-1.101 0-1.298-0.014-1.525-0.016-0.241-0.072-0.352-0.304-0.401-0.056-0.014-0.176-0.021-0.24-0.021-0.029 0-0.056-0.014-0.056-0.042 0-0.044 0.035-0.058 0.112-0.058 0.317 0 0.764 0.023 0.798 0.023 0.049 0 1.456 0 1.619-9e-3 0.132-7e-3 0.243-0.021 0.302-0.035 0.035-7e-3 0.063-0.035 0.099-0.035 0.022 0 0.029 0.028 0.029 0.063 0 0.051-0.036 0.135-0.058 0.331-7e-3 0.071-0.021 0.383-0.035 0.465-7e-3 0.035-0.021 0.079-0.05 0.079-0.044 0-0.057-0.035-0.057-0.092 0-0.049-8e-3 -0.168-0.041-0.253-0.05-0.115-0.12-0.199-0.504-0.241-0.118-0.015-0.887-0.022-0.964-0.022-0.029 0-0.043 0.022-0.043 0.071v1.95c0 0.05 8e-3 0.071 0.043 0.071 0.091 0 0.959 0 1.123-0.012 0.17-0.016 0.268-0.03 0.331-0.1 0.047-0.059 0.076-0.094 0.105-0.094 0.022 0 0.036 0.014 0.036 0.058 0 0.042-0.036 0.164-0.058 0.393-0.015 0.142-0.028 0.406-0.028 0.454 0 0.056 0 0.132-0.048 0.132-0.036 0-0.05-0.028-0.05-0.063 0-0.069 0-0.138-0.028-0.231-0.027-0.099-0.09-0.22-0.367-0.248-0.192-0.021-0.889-0.035-1.009-0.035-0.036 0-0.05 0.019-0.05 0.049v0.622c0 0.241-7e-3 1.058 0 1.207 0.021 0.488 0.129 0.579 0.82 0.579 0.182 0 0.494 0 0.677-0.079 0.183-0.077 0.268-0.216 0.319-0.507 0.013-0.078 0.027-0.107 0.063-0.107 0.043 0 0.043 0.058 0.043 0.107 0 0.057-0.058 0.537-0.093 0.686-0.049 0.184-0.106 0.184-0.382 0.184-1.068 0-1.54-0.041-1.744-0.041-0.034 0-0.481 0.019-0.69 0.019-0.08 0-0.114-0.012-0.114-0.056 0-0.021 0.014-0.042 0.055-0.042 0.064 0 0.149-0.014 0.212-0.029 0.141-0.028 0.176-0.184 0.204-0.388 0.037-0.298 0.037-0.856 0.037-1.533z"/></g></svg>
