<svg width="160" height="160" version="1.1" xmlns="http://www.w3.org/2000/svg"><g transform="translate(30,30)"><g fill="#c8c8c8"><circle cx="2.5" cy="2.5" r="2.5"/><circle cx="10" cy="2.5" r="2.5"/><circle cx="17" cy="2.5" r="2.5"/><circle cx="24.5" cy="2.5" r="2.5"/><circle cx="31.5" cy="2.5" r="2.5"/><circle cx="39" cy="2.5" r="2.5"/><circle cx="46.5" cy="2.5" r="2.5"/><circle cx="53.5" cy="2.5" r="2.5"/><circle cx="61" cy="2.5" r="2.5"/><circle cx="68" cy="2.5" r="2.5"/><circle cx="75.5" cy="2.5" r="2.5"/><circle cx="83" cy="2.5" r="2.5"/><circle cx="90" cy="2.5" r="2.5"/><circle cx="97.5" cy="2.5" r="2.5"/><circle cx="2.5" cy="97.5" r="2.5"/><circle cx="10" cy="97.5" r="2.5"/><circle cx="17" cy="97.5" r="2.5"/><circle cx="24.5" cy="97.5" r="2.5"/><circle cx="31.5" cy="97.5" r="2.5"/><circle cx="39" cy="97.5" r="2.5"/><circle cx="46.5" cy="97.5" r="2.5"/><circle cx="53.5" cy="97.5" r="2.5"/><circle cx="61" cy="97.5" r="2.5"/><circle cx="68" cy="97.5" r="2.5"/><circle cx="75.5" cy="97.5" r="2.5"/><circle cx="83" cy="97.5" r="2.5"/><circle cx="90" cy="97.5" r="2.5"/><circle cx="97.5" cy="97.5" r="2.5"/><circle cx="2.5" cy="10" r="2.5"/><circle cx="2.5" cy="17.5" r="2.5"/><circle cx="2.5" cy="25" r="2.5"/><circle cx="2.5" cy="31.5" r="2.5"/><circle cx="2.5" cy="39" r="2.5"/><circle cx="2.5" cy="46.5" r="2.5"/><circle cx="2.5" cy="53.5" r="2.5"/><circle cx="2.5" cy="61" r="2.5"/><circle cx="2.5" cy="68.5" r="2.5"/><circle cx="2.5" cy="75.5" r="2.5"/><circle cx="2.5" cy="83" r="2.5"/><circle cx="2.5" cy="90" r="2.5"/><circle cx="97.5" cy="10" r="2.5"/><circle cx="97.5" cy="17.5" r="2.5"/><circle cx="97.5" cy="25" r="2.5"/><circle cx="97.5" cy="31.5" r="2.5"/><circle cx="97.5" cy="39" r="2.5"/><circle cx="97.5" cy="46.5" r="2.5"/><circle cx="97.5" cy="53.5" r="2.5"/><circle cx="97.5" cy="61" r="2.5"/><circle cx="97.5" cy="68.5" r="2.5"/><circle cx="97.5" cy="75.5" r="2.5"/><circle cx="97.5" cy="83" r="2.5"/><circle cx="97.5" cy="90" r="2.5"/></g><path d="m17 29.25c-2.5 0-4.5 1.5-4.5 4.25s2 4.5 4.5 4.5 4.75-2 4.75-4.5-2-4.25-4.75-4.25zm0 2.25c1 0 2 1 2 2 0 1.25-1 2.25-2 2.25s-2-1-2-2.25c0-1 1.075-2 2-2z"/><path d="m28.25 29.25c-2.5 0-2.75 1.25-2.75 1.25v-1h-2.5v12h2.5v-5s1 1.5 2.75 1.5c2.25 0 4-2.25 4-4.5s-1.5-4.25-4-4.25zm-0.75 2.25c1.25 0 2.25 1 2.25 2 0 1.25-1.25 2.25-2.25 2.25-1.25 0-2-1.25-2-2.25s0.75-2 2-2z"/><path d="m37.5 29.25c-2.25 0-4.25 2-4.25 4.25 0 2 1.75 4.5 4.25 4.5 2 0 3-0.75 3.75-1.75-0.75-0.5-0.75-0.5-1.75-1.25-2.5 2.5-3.75-0.25-3.5-0.75h5.75c0-2.875-0.75-5-4.25-5zm0 1.75c1 0 1.75 0.75 1.75 1.5h-3.5c0-0.75 0.75-1.5 1.75-1.5z"/><path d="m43.25 29.25h2.5v1.25c0.5-1 5.25-2.75 5.5 1.25v6.25h-2.5v-5.5c-0.25-1.25-2-1.25-2.75 0v5.5h-2.75z"/><path d="m19.25 45c-0.5 0.5-0.75 0.75-1.5 1.25-0.5-0.25-2.25-1-2.5 0.25 0 1.25 4.25 0 4.25 3.25 0 1.5-1 2.75-3.25 2.75-1.25 0-2.25 0-3.75-1 0.75-0.75 1-1.25 1.5-1.75 0.5 0.75 3 1.25 3 0.25 0-1.25-4.25-0.25-4.25-3.25 0-1.5 1-3 3.5-3 1 0 2.25 0.25 3 1.25z"/><path d="m19.75 44h2.75l2.25 5.5 1.75-5.5h2.75s-3 7.75-4.5 11c-1 2.25-4.75 1.25-4.75 1.25s0.25-1.25 0.5-2.25c2.25 1.25 3-1.5 3-1.5z"/><path d="m48.75 44c-2.25 0-4.25 2-4.25 4.25 0 2 1.75 4.5 4.25 4.5 2 0 3-0.75 3.75-1.75-0.75-0.5-0.75-0.5-1.75-1.25-2.5 2.5-3.75-0.25-3.5-0.75h5.75c0-2.875-0.75-5-4.25-5zm0 1.75c1 0 1.75 0.75 1.75 1.5h-3.5c0-0.75 0.75-1.5 1.75-1.5z"/><path d="m75.75 45c-0.5 0.5-0.75 0.75-1.5 1.25-0.5-0.25-2.25-1-2.5 0.25 0 1.25 4.25 0 4.25 3.25 0 1.5-1 2.75-3.25 2.75-1.25 0-2.25 0-3.75-1 0.75-0.75 1-1.25 1.5-1.75 0.5 0.75 3 1.25 3 0.25 0-1.25-4.25-0.25-4.25-3.25 0-1.5 1-3 3.5-3 1 0 2.25 0.25 3 1.25z"/><path d="m36 45c-0.5 0.5-0.75 0.75-1.5 1.25-0.5-0.25-2.25-1-2.5 0.25 0 1.25 4.25 0 4.25 3.25 0 1.5-1 2.75-3.25 2.75-1.25 0-2.25 0-3.75-1 0.75-0.75 1-1.25 1.5-1.75 0.5 0.75 3 1.25 3 0.25 0-1.25-4.25-0.25-4.25-3.25 0-1.5 1-3 3.5-3 1 0 2.25 0.25 3 1.25z"/><path d="m38.5 41.5h2.5v2.5h2.25v2h-2.25v3.75c1 1.25 2.25 0.25 2.25 0.25v2.25s-3.25 1.25-4.75-1.5v-4.75h-1.75v-2h1.75z"/><path d="m54.25 43.75v8.75h2.75v-5.5c0.75-1.25 2.5-1.25 2.75 0v5.5h2.5v-5.5c1-1 2.5-1 2.75 0.125v5.5h2.5v-6.25c-0.25-4-5-2.25-5.5-1.25-1-2.5-4.75-1-5.25-0.125v-1.25z"/></g></svg>
